<svg id="Concord" xmlns="http://www.w3.org/2000/svg" xmlns:xlink="http://www.w3.org/1999/xlink" width="176.116" height="44" viewBox="0 0 176.116 44">
  <defs>
    <linearGradient id="linear-gradient" x1="0.5" y1="0.018" x2="0.5" y2="1.493" gradientUnits="objectBoundingBox">
      <stop offset="0" stop-color="#666"/>
      <stop offset="0.192" stop-color="#ccc"/>
      <stop offset="0.408" stop-color="#b3b3b3"/>
      <stop offset="0.803" stop-color="#f2f2f2"/>
      <stop offset="1" stop-color="#b3b3b3"/>
    </linearGradient>
    <linearGradient id="linear-gradient-2" x1="0.5" y1="-0.336" x2="0.5" y2="1.665" xlink:href="#linear-gradient"/>
    <linearGradient id="linear-gradient-3" x1="0.5" y1="-0.346" x2="0.5" y2="1.7" xlink:href="#linear-gradient"/>
    <linearGradient id="linear-gradient-4" x1="0.5" y1="-0.34" x2="0.5" y2="1.673" xlink:href="#linear-gradient"/>
    <linearGradient id="linear-gradient-7" x1="0.5" y1="0.002" x2="0.5" y2="1.499" xlink:href="#linear-gradient"/>
    <linearGradient id="linear-gradient-8" x1="0.5" y1="0.018" x2="0.5" y2="1.493" gradientUnits="objectBoundingBox">
      <stop offset="0" stop-color="#b3b3b3"/>
      <stop offset="0.197" stop-color="#f2f2f2"/>
      <stop offset="0.592" stop-color="#b3b3b3"/>
      <stop offset="0.808" stop-color="#ccc"/>
      <stop offset="1" stop-color="#666"/>
    </linearGradient>
    <linearGradient id="linear-gradient-9" x1="0.5" y1="-0.336" x2="0.5" y2="1.665" xlink:href="#linear-gradient-8"/>
    <linearGradient id="linear-gradient-10" x1="0.5" y1="-0.346" x2="0.5" y2="1.7" xlink:href="#linear-gradient-8"/>
    <linearGradient id="linear-gradient-11" x1="0.5" y1="-0.34" x2="0.5" y2="1.673" xlink:href="#linear-gradient-8"/>
    <linearGradient id="linear-gradient-14" x1="0.5" y1="0.002" x2="0.5" y2="1.499" xlink:href="#linear-gradient-8"/>
    <linearGradient id="linear-gradient-15" x1="1.065" y1="0.142" x2="0.156" y2="1.049" gradientUnits="objectBoundingBox">
      <stop offset="0.006" stop-color="#85f0f4"/>
      <stop offset="0.139" stop-color="#1fd1e5"/>
      <stop offset="1" stop-color="#0066b3"/>
    </linearGradient>
    <linearGradient id="linear-gradient-16" x1="1.065" y1="0.142" x2="0.159" y2="1.046" gradientUnits="objectBoundingBox">
      <stop offset="0.006" stop-color="#24e4eb"/>
      <stop offset="0.139" stop-color="#1fd1e5"/>
      <stop offset="0.655" stop-color="#0066b3"/>
      <stop offset="1" stop-color="#00214d"/>
    </linearGradient>
    <linearGradient id="linear-gradient-17" x1="0.97" y1="0.198" x2="-0.071" y2="1.038" xlink:href="#linear-gradient-15"/>
    <linearGradient id="linear-gradient-18" x1="0.999" y1="0.148" x2="0.094" y2="0.98" xlink:href="#linear-gradient-16"/>
    <linearGradient id="linear-gradient-19" x1="1.255" y1="-0.341" x2="0.031" y2="1.041" xlink:href="#linear-gradient-15"/>
    <linearGradient id="linear-gradient-20" x1="1.657" y1="-1.094" x2="-0.299" y2="1.698" xlink:href="#linear-gradient-16"/>
    <linearGradient id="linear-gradient-21" x1="0.897" y1="0.029" x2="-0.009" y2="0.903" xlink:href="#linear-gradient-15"/>
    <linearGradient id="linear-gradient-22" x1="0.897" y1="0.029" x2="-0.009" y2="0.903" xlink:href="#linear-gradient-16"/>
  </defs>
  <g id="Group_559" data-name="Group 559" transform="translate(54.103 9.513)">
    <path id="Path_259" data-name="Path 259" d="M1373.7-76.154q-1.113-.037-1.968-.148a13.908,13.908,0,0,1-1.708-.335,7.176,7.176,0,0,1-3.268-1.949,8.082,8.082,0,0,1-1.69-2.933,13.462,13.462,0,0,1-.63-3.546q-.094-1.894-.094-3.788v-.186a43.631,43.631,0,0,1,.186-4.455,19.425,19.425,0,0,1,.483-2.859,6.1,6.1,0,0,1,.723-1.764,9.025,9.025,0,0,1,.947-1.207,6.839,6.839,0,0,1,1.486-1.189,7.333,7.333,0,0,1,1.745-.743,12.391,12.391,0,0,1,1.856-.37,15.161,15.161,0,0,1,1.819-.112,16.865,16.865,0,0,1,3.88.519,6.4,6.4,0,0,1,3.176,1.895q.408.52.8,1.095a5.9,5.9,0,0,1,.688,1.5l-3.38.371a2.962,2.962,0,0,0-.891-1.17,4.106,4.106,0,0,0-1.244-.649,6.863,6.863,0,0,0-1.449-.3q-.76-.074-1.466-.111a15.189,15.189,0,0,0-2.524.315,4.006,4.006,0,0,0-2.006,1.206,3.706,3.706,0,0,0-.464.594,4.463,4.463,0,0,0-.465,1.206,15.486,15.486,0,0,0-.37,2.3q-.149,1.468-.149,3.918v.186q0,2.451.149,3.917a16.064,16.064,0,0,0,.37,2.321,4.124,4.124,0,0,0,.465,1.206,4.086,4.086,0,0,0,.464.576,4.356,4.356,0,0,0,2.024,1.225,13.279,13.279,0,0,0,2.469.334q.781-.037,1.56-.149a8,8,0,0,0,1.484-.353,3.9,3.9,0,0,0,1.244-.686,2.655,2.655,0,0,0,.8-1.151l3.38.445a6.809,6.809,0,0,1-1.894,2.9,7.866,7.866,0,0,1-3.007,1.633A13.775,13.775,0,0,1,1373.7-76.154Z" transform="translate(-1364.348 101.737)" fill="url(#linear-gradient)"/>
    <path id="Path_260" data-name="Path 260" d="M1402.966-84.547a15.629,15.629,0,0,1-.427,3.787,8.208,8.208,0,0,1-1.374,2.971,6.166,6.166,0,0,1-2.506,1.949,9.384,9.384,0,0,1-3.788.686,8.521,8.521,0,0,1-3.825-.761,6.4,6.4,0,0,1-2.432-2.06,8.221,8.221,0,0,1-1.281-2.989,16.642,16.642,0,0,1-.371-3.582,18.182,18.182,0,0,1,.371-3.788,7.713,7.713,0,0,1,1.3-3.008,6.256,6.256,0,0,1,2.431-1.968,8.982,8.982,0,0,1,3.806-.706,9.392,9.392,0,0,1,3.992.743,6.231,6.231,0,0,1,2.488,2.024,7.84,7.84,0,0,1,1.263,3.008A18.525,18.525,0,0,1,1402.966-84.547Zm-8.094,6.126a5,5,0,0,0,2.377-.5,3.861,3.861,0,0,0,1.466-1.346,5.226,5.226,0,0,0,.724-1.956,13.985,13.985,0,0,0,.186-2.325,12.831,12.831,0,0,0-.223-2.491,5.529,5.529,0,0,0-.761-1.956,3.673,3.673,0,0,0-1.448-1.292,5.119,5.119,0,0,0-2.321-.461,4.962,4.962,0,0,0-2.414.5,3.506,3.506,0,0,0-1.373,1.347,5.354,5.354,0,0,0-.631,1.956,17.517,17.517,0,0,0-.149,2.324,15.078,15.078,0,0,0,.186,2.437,5.47,5.47,0,0,0,.687,1.975,3.556,3.556,0,0,0,1.392,1.309A4.833,4.833,0,0,0,1394.872-78.421Z" transform="translate(-1367.062 100.81)" fill="url(#linear-gradient-2)"/>
    <path id="Path_261" data-name="Path 261" d="M1423.887-75.519h-3.267v-9.914a10.07,10.07,0,0,0-.131-1.764,7.335,7.335,0,0,0-.315-1.226,2.848,2.848,0,0,0-.446-.817c-.173-.209-.334-.39-.482-.539a5.873,5.873,0,0,0-1.226-.817,4.311,4.311,0,0,0-2-.408,4.133,4.133,0,0,0-1.931.408,5.829,5.829,0,0,0-1.225.817q-.223.223-.483.52a3.264,3.264,0,0,0-.482.78,5.006,5.006,0,0,0-.353,1.206,10.671,10.671,0,0,0-.13,1.838v9.914h-3.267V-93.565h3.267v2.116a3.168,3.168,0,0,1,.779-1.022,5.817,5.817,0,0,1,1.151-.8,6.246,6.246,0,0,1,1.337-.519,5.247,5.247,0,0,1,1.336-.187,9.5,9.5,0,0,1,3.527.594,6.268,6.268,0,0,1,2.451,1.708,7.107,7.107,0,0,1,1.43,2.692,12.569,12.569,0,0,1,.464,3.546Z" transform="translate(-1369.604 100.805)" fill="url(#linear-gradient-3)"/>
    <path id="Path_262" data-name="Path 262" d="M1437.029-93.974a8.47,8.47,0,0,1,5.05,1.319,6.214,6.214,0,0,1,2.413,3.36l-3.49.334a2.862,2.862,0,0,0-1.708-1.448,6.98,6.98,0,0,0-2.265-.408,5,5,0,0,0-2.45.52,3.723,3.723,0,0,0-1.43,1.374,5.479,5.479,0,0,0-.669,1.986,16.268,16.268,0,0,0-.166,2.358,13.93,13.93,0,0,0,.2,2.468,5.351,5.351,0,0,0,.724,1.949,3.547,3.547,0,0,0,1.449,1.281,5.207,5.207,0,0,0,2.339.464,7.517,7.517,0,0,0,1.133-.092,5.283,5.283,0,0,0,1.169-.315,3.994,3.994,0,0,0,1-.576,2.275,2.275,0,0,0,.668-.835l3.49.334a6.131,6.131,0,0,1-2.413,3.379,8.567,8.567,0,0,1-5.05,1.3,9.116,9.116,0,0,1-3.954-.743,6.126,6.126,0,0,1-2.432-2.023,8.469,8.469,0,0,1-1.281-2.971,21.5,21.5,0,0,1-.5-3.619,17.45,17.45,0,0,1,.39-3.844,7.439,7.439,0,0,1,1.336-2.952,6.3,6.3,0,0,1,2.526-1.912A9.831,9.831,0,0,1,1437.029-93.974Z" transform="translate(-1372.09 100.805)" fill="url(#linear-gradient-4)"/>
    <path id="Path_263" data-name="Path 263" d="M1464.99-84.547a15.634,15.634,0,0,1-.427,3.787,8.206,8.206,0,0,1-1.374,2.971,6.168,6.168,0,0,1-2.506,1.949,9.375,9.375,0,0,1-3.787.686,8.514,8.514,0,0,1-3.824-.761,6.389,6.389,0,0,1-2.432-2.06,8.222,8.222,0,0,1-1.281-2.989,16.642,16.642,0,0,1-.371-3.582,18.183,18.183,0,0,1,.371-3.788,7.718,7.718,0,0,1,1.3-3.008,6.26,6.26,0,0,1,2.431-1.968,8.982,8.982,0,0,1,3.807-.706,9.39,9.39,0,0,1,3.991.743,6.238,6.238,0,0,1,2.488,2.024,7.847,7.847,0,0,1,1.262,3.008A18.461,18.461,0,0,1,1464.99-84.547Zm-8.094,6.126a5,5,0,0,0,2.376-.5,3.864,3.864,0,0,0,1.467-1.346,5.226,5.226,0,0,0,.724-1.956,14.011,14.011,0,0,0,.186-2.325,12.85,12.85,0,0,0-.223-2.491,5.52,5.52,0,0,0-.761-1.956,3.674,3.674,0,0,0-1.448-1.292,5.12,5.12,0,0,0-2.321-.461,4.96,4.96,0,0,0-2.413.5,3.514,3.514,0,0,0-1.374,1.347,5.333,5.333,0,0,0-.631,1.956,17.456,17.456,0,0,0-.148,2.324,15.109,15.109,0,0,0,.185,2.437,5.491,5.491,0,0,0,.687,1.975,3.563,3.563,0,0,0,1.392,1.309A4.839,4.839,0,0,0,1456.9-78.421Z" transform="translate(-1374.505 100.81)" fill="url(#linear-gradient-2)"/>
    <path id="Path_264" data-name="Path 264" d="M1480.3-90.409a5.4,5.4,0,0,0-1-.445A3.543,3.543,0,0,0,1478-91a4.331,4.331,0,0,0-1.913.482,4.361,4.361,0,0,0-1.41,1.189,5.911,5.911,0,0,0-.91,1.707,5.978,5.978,0,0,0-.333,1.969v10.137h-3.268V-93.6h3.268v2.153a3.272,3.272,0,0,1,.76-1.022,5.368,5.368,0,0,1,1.132-.8,6.181,6.181,0,0,1,1.356-.519,5.594,5.594,0,0,1,1.393-.187,8.65,8.65,0,0,1,2.227.3Z" transform="translate(-1377.047 100.805)" fill="url(#linear-gradient-3)"/>
    <path id="Path_265" data-name="Path 265" d="M1484.6-85.269a19.35,19.35,0,0,1,.335-3.7,7.959,7.959,0,0,1,1.225-3.026,6.225,6.225,0,0,1,2.432-2.061,9.038,9.038,0,0,1,3.992-.76,6.134,6.134,0,0,1,1.484.186,6.906,6.906,0,0,1,1.411.519,5.049,5.049,0,0,1,1.169.8,3.493,3.493,0,0,1,.761.985v-8.949h3.267V-76.4h-3.267v-1.857a4.744,4.744,0,0,1-1.987,1.559,6.652,6.652,0,0,1-2.839.631,9.333,9.333,0,0,1-3.751-.668,6.218,6.218,0,0,1-2.469-1.894,7.636,7.636,0,0,1-1.355-2.915A15.9,15.9,0,0,1,1484.6-85.269Zm7.984,6.015a4.746,4.746,0,0,0,2.116-.408,5.6,5.6,0,0,0,1.188-.743c.172-.173.347-.359.52-.557a3.061,3.061,0,0,0,.482-.835,6.749,6.749,0,0,0,.371-1.393,13.525,13.525,0,0,0,.149-2.227,13.253,13.253,0,0,0-.149-2.191,6.755,6.755,0,0,0-.371-1.392,3.45,3.45,0,0,0-.482-.854c-.174-.209-.348-.4-.52-.575a4.7,4.7,0,0,0-1.188-.78,4.734,4.734,0,0,0-2.116-.408,4.685,4.685,0,0,0-2.043.408,5.337,5.337,0,0,0-1.263.78q-.26.26-.519.575a2.743,2.743,0,0,0-.446.854,8.134,8.134,0,0,0-.315,1.392,14.957,14.957,0,0,0-.13,2.191,15.937,15.937,0,0,0,.13,2.3,7.611,7.611,0,0,0,.315,1.374,2.271,2.271,0,0,0,.446.8q.259.279.519.539a7.005,7.005,0,0,0,1.207.743A4.62,4.62,0,0,0,1492.581-79.254Z" transform="translate(-1378.778 101.681)" fill="url(#linear-gradient-7)"/>
  </g>
  <g id="Group_560" data-name="Group 560" transform="translate(54.103 8.6)">
    <path id="Path_266" data-name="Path 266" d="M1373.7-77.191q-1.113-.037-1.968-.148a13.739,13.739,0,0,1-1.708-.334,7.177,7.177,0,0,1-3.268-1.949,8.078,8.078,0,0,1-1.69-2.934,13.455,13.455,0,0,1-.63-3.546q-.094-1.894-.094-3.787v-.186a43.65,43.65,0,0,1,.186-4.456,19.411,19.411,0,0,1,.483-2.858,6.119,6.119,0,0,1,.723-1.764,9.136,9.136,0,0,1,.947-1.206,6.833,6.833,0,0,1,1.486-1.188,7.261,7.261,0,0,1,1.745-.743,12.389,12.389,0,0,1,1.856-.371,15.34,15.34,0,0,1,1.819-.112,16.817,16.817,0,0,1,3.88.52,6.4,6.4,0,0,1,3.176,1.894q.408.52.8,1.1a5.889,5.889,0,0,1,.688,1.5l-3.38.371a2.965,2.965,0,0,0-.891-1.17,4.146,4.146,0,0,0-1.244-.649,6.808,6.808,0,0,0-1.449-.3q-.76-.075-1.466-.112a15.182,15.182,0,0,0-2.524.316,4.006,4.006,0,0,0-2.006,1.206,3.707,3.707,0,0,0-.464.594,4.438,4.438,0,0,0-.465,1.206,15.486,15.486,0,0,0-.37,2.3q-.149,1.467-.149,3.918v.186q0,2.45.149,3.917a16.07,16.07,0,0,0,.37,2.321,4.114,4.114,0,0,0,.465,1.206,3.986,3.986,0,0,0,.464.576,4.359,4.359,0,0,0,2.024,1.226,13.364,13.364,0,0,0,2.469.334q.781-.036,1.56-.149a8.07,8.07,0,0,0,1.484-.352,3.917,3.917,0,0,0,1.244-.687,2.649,2.649,0,0,0,.8-1.151l3.38.445a6.8,6.8,0,0,1-1.894,2.9,7.868,7.868,0,0,1-3.007,1.634A13.775,13.775,0,0,1,1373.7-77.191Z" transform="translate(-1364.348 102.774)" stroke="#707070" stroke-miterlimit="10" stroke-width="0.232" fill="url(#linear-gradient-8)"/>
    <path id="Path_267" data-name="Path 267" d="M1402.966-85.584a15.636,15.636,0,0,1-.427,3.788,8.211,8.211,0,0,1-1.374,2.97,6.158,6.158,0,0,1-2.506,1.949,9.368,9.368,0,0,1-3.788.687,8.521,8.521,0,0,1-3.825-.761,6.391,6.391,0,0,1-2.432-2.061A8.217,8.217,0,0,1,1387.334-82a16.644,16.644,0,0,1-.371-3.583,18.194,18.194,0,0,1,.371-3.788,7.715,7.715,0,0,1,1.3-3.007,6.258,6.258,0,0,1,2.431-1.969,9,9,0,0,1,3.806-.7,9.378,9.378,0,0,1,3.992.743,6.229,6.229,0,0,1,2.488,2.023,7.846,7.846,0,0,1,1.263,3.008A18.525,18.525,0,0,1,1402.966-85.584Zm-8.094,6.127a5.01,5.01,0,0,0,2.377-.5,3.863,3.863,0,0,0,1.466-1.347,5.228,5.228,0,0,0,.724-1.955,14,14,0,0,0,.186-2.326,12.838,12.838,0,0,0-.223-2.491,5.535,5.535,0,0,0-.761-1.956,3.674,3.674,0,0,0-1.448-1.292,5.119,5.119,0,0,0-2.321-.461,4.962,4.962,0,0,0-2.414.5,3.512,3.512,0,0,0-1.373,1.347,5.359,5.359,0,0,0-.631,1.956,17.53,17.53,0,0,0-.149,2.325,15.075,15.075,0,0,0,.186,2.436,5.464,5.464,0,0,0,.687,1.975,3.558,3.558,0,0,0,1.392,1.31A4.833,4.833,0,0,0,1394.872-79.457Z" transform="translate(-1367.062 101.847)" stroke="#707070" stroke-miterlimit="10" stroke-width="0.232" fill="url(#linear-gradient-9)"/>
    <path id="Path_268" data-name="Path 268" d="M1423.887-76.556h-3.267V-86.47a10.076,10.076,0,0,0-.131-1.764,7.347,7.347,0,0,0-.315-1.225,2.823,2.823,0,0,0-.446-.817q-.26-.315-.482-.539a5.906,5.906,0,0,0-1.226-.818,4.312,4.312,0,0,0-2-.408,4.133,4.133,0,0,0-1.931.408,5.862,5.862,0,0,0-1.225.818q-.223.223-.483.52a3.247,3.247,0,0,0-.482.78,4.994,4.994,0,0,0-.353,1.207,10.66,10.66,0,0,0-.13,1.837v9.914h-3.267V-94.6h3.267v2.116a3.175,3.175,0,0,1,.779-1.021,5.744,5.744,0,0,1,1.151-.8,6.247,6.247,0,0,1,1.337-.52,5.281,5.281,0,0,1,1.336-.186,9.5,9.5,0,0,1,3.527.594,6.249,6.249,0,0,1,2.451,1.708,7.107,7.107,0,0,1,1.43,2.692,12.567,12.567,0,0,1,.464,3.546Z" transform="translate(-1369.604 101.842)" stroke="#707070" stroke-miterlimit="10" stroke-width="0.232" fill="url(#linear-gradient-10)"/>
    <path id="Path_269" data-name="Path 269" d="M1437.029-95.01a8.476,8.476,0,0,1,5.05,1.318,6.217,6.217,0,0,1,2.413,3.36L1441-90a2.857,2.857,0,0,0-1.708-1.448,6.957,6.957,0,0,0-2.265-.408,5.006,5.006,0,0,0-2.45.519,3.725,3.725,0,0,0-1.43,1.375,5.479,5.479,0,0,0-.669,1.986,16.247,16.247,0,0,0-.166,2.358,13.947,13.947,0,0,0,.2,2.469,5.35,5.35,0,0,0,.724,1.949,3.551,3.551,0,0,0,1.449,1.28,5.194,5.194,0,0,0,2.339.465,7.637,7.637,0,0,0,1.133-.092,5.237,5.237,0,0,0,1.169-.316,3.991,3.991,0,0,0,1-.576,2.278,2.278,0,0,0,.668-.836l3.49.334a6.125,6.125,0,0,1-2.413,3.379,8.561,8.561,0,0,1-5.05,1.3,9.13,9.13,0,0,1-3.954-.742,6.135,6.135,0,0,1-2.432-2.024,8.464,8.464,0,0,1-1.281-2.97,21.5,21.5,0,0,1-.5-3.62,17.441,17.441,0,0,1,.39-3.843,7.44,7.44,0,0,1,1.336-2.952,6.289,6.289,0,0,1,2.526-1.912A9.831,9.831,0,0,1,1437.029-95.01Z" transform="translate(-1372.09 101.842)" stroke="#707070" stroke-miterlimit="10" stroke-width="0.232" fill="url(#linear-gradient-11)"/>
    <path id="Path_270" data-name="Path 270" d="M1464.99-85.584a15.642,15.642,0,0,1-.427,3.788,8.209,8.209,0,0,1-1.374,2.97,6.16,6.16,0,0,1-2.506,1.949,9.36,9.36,0,0,1-3.787.687,8.514,8.514,0,0,1-3.824-.761,6.383,6.383,0,0,1-2.432-2.061A8.218,8.218,0,0,1,1449.357-82a16.645,16.645,0,0,1-.371-3.583,18.2,18.2,0,0,1,.371-3.788,7.72,7.72,0,0,1,1.3-3.007,6.263,6.263,0,0,1,2.431-1.969,9,9,0,0,1,3.807-.7,9.376,9.376,0,0,1,3.991.743,6.236,6.236,0,0,1,2.488,2.023,7.852,7.852,0,0,1,1.262,3.008A18.461,18.461,0,0,1,1464.99-85.584Zm-8.094,6.127a5.006,5.006,0,0,0,2.376-.5,3.867,3.867,0,0,0,1.467-1.347,5.227,5.227,0,0,0,.724-1.955,14.029,14.029,0,0,0,.186-2.326,12.856,12.856,0,0,0-.223-2.491,5.526,5.526,0,0,0-.761-1.956,3.674,3.674,0,0,0-1.448-1.292,5.121,5.121,0,0,0-2.321-.461,4.96,4.96,0,0,0-2.413.5,3.52,3.52,0,0,0-1.374,1.347,5.339,5.339,0,0,0-.631,1.956,17.469,17.469,0,0,0-.148,2.325,15.106,15.106,0,0,0,.185,2.436,5.485,5.485,0,0,0,.687,1.975,3.565,3.565,0,0,0,1.392,1.31A4.839,4.839,0,0,0,1456.9-79.457Z" transform="translate(-1374.505 101.847)" stroke="#707070" stroke-miterlimit="10" stroke-width="0.232" fill="url(#linear-gradient-9)"/>
    <path id="Path_271" data-name="Path 271" d="M1480.3-91.445a5.344,5.344,0,0,0-1-.446,3.58,3.58,0,0,0-1.3-.149,4.343,4.343,0,0,0-1.913.483,4.369,4.369,0,0,0-1.41,1.188,5.9,5.9,0,0,0-.91,1.708,5.973,5.973,0,0,0-.333,1.968v10.137h-3.268V-94.639h3.268v2.153a3.279,3.279,0,0,1,.76-1.021,5.305,5.305,0,0,1,1.132-.8,6.182,6.182,0,0,1,1.356-.52,5.63,5.63,0,0,1,1.393-.186,8.612,8.612,0,0,1,2.227.3Z" transform="translate(-1377.047 101.842)" stroke="#707070" stroke-miterlimit="10" stroke-width="0.232" fill="url(#linear-gradient-10)"/>
    <path id="Path_272" data-name="Path 272" d="M1484.6-86.306a19.341,19.341,0,0,1,.335-3.694,7.953,7.953,0,0,1,1.225-3.026,6.218,6.218,0,0,1,2.432-2.061,9.037,9.037,0,0,1,3.992-.761,6.134,6.134,0,0,1,1.484.186,6.855,6.855,0,0,1,1.411.52,5.022,5.022,0,0,1,1.169.8,3.5,3.5,0,0,1,.761.984v-8.948h3.267v24.877h-3.267v-1.857a4.745,4.745,0,0,1-1.987,1.56,6.665,6.665,0,0,1-2.839.631,9.333,9.333,0,0,1-3.751-.668,6.226,6.226,0,0,1-2.469-1.894,7.648,7.648,0,0,1-1.355-2.915A15.907,15.907,0,0,1,1484.6-86.306Zm7.984,6.015a4.734,4.734,0,0,0,2.116-.408,5.562,5.562,0,0,0,1.188-.743c.172-.172.347-.358.52-.557a3.047,3.047,0,0,0,.482-.835,6.755,6.755,0,0,0,.371-1.392,13.537,13.537,0,0,0,.149-2.228,13.242,13.242,0,0,0-.149-2.19,6.739,6.739,0,0,0-.371-1.392,3.418,3.418,0,0,0-.482-.854c-.174-.21-.348-.4-.52-.576a4.719,4.719,0,0,0-1.188-.78,4.746,4.746,0,0,0-2.116-.408,4.7,4.7,0,0,0-2.043.408,5.365,5.365,0,0,0-1.263.78q-.26.26-.519.576a2.723,2.723,0,0,0-.446.854,8.114,8.114,0,0,0-.315,1.392,14.944,14.944,0,0,0-.13,2.19,15.937,15.937,0,0,0,.13,2.3,7.6,7.6,0,0,0,.315,1.374,2.263,2.263,0,0,0,.446.8c.172.186.346.366.519.539a6.951,6.951,0,0,0,1.207.743A4.608,4.608,0,0,0,1492.581-80.291Z" transform="translate(-1378.778 102.718)" stroke="#707070" stroke-miterlimit="10" stroke-width="0.232" fill="url(#linear-gradient-14)"/>
  </g>
  <g id="Group_561" data-name="Group 561" transform="translate(0)">
    <path id="Path_273" data-name="Path 273" d="M1312.508-70.171c4.995-.423,12.42-4.633,18.529-10.132a32.748,32.748,0,0,0-4.1.537c-8.867,1.712-17.87,7.286-16.194,9.167l.094.089.257.219-.266-.24A2.561,2.561,0,0,0,1312.508-70.171Z" transform="translate(-1303.788 108.678)" fill="#134577"/>
    <path id="Path_274" data-name="Path 274" d="M1314.748-66.257a16.041,16.041,0,0,0,1.764.986l.219.1c-.524-.271-.909-.47-1.229-.642C1315.246-65.958,1314.992-66.108,1314.748-66.257Z" transform="translate(-1304.293 106.992)" fill="#134577"/>
    <path id="Path_275" data-name="Path 275" d="M1313.145-67.327l.011.008c-.33-.253-.7-.545-1.068-.842C1312.451-67.865,1312.816-67.576,1313.145-67.327Z" transform="translate(-1303.974 107.221)" fill="#134577"/>
    <path id="Path_276" data-name="Path 276" d="M1318.326-64.443c.348.145.7.287,1,.4l-.035-.018c-.115-.043-.236-.09-.358-.137C1318.739-64.277,1318.533-64.359,1318.326-64.443Z" transform="translate(-1304.722 106.774)" fill="#134577"/>
    <path id="Path_277" data-name="Path 277" d="M1345.08-74.52a3.9,3.9,0,0,0-1.87-3.885,46.5,46.5,0,0,1-6.2,5.641c2.077.365,2.979,1.456,2.375,2.761a4.55,4.55,0,0,1-.559.931A38.883,38.883,0,0,0,1345.08-74.52Z" transform="translate(-1306.965 108.45)" fill="#134577"/>
    <path id="Path_278" data-name="Path 278" d="M1350.88-78.789c.16-.408.318-.845.467-1.318.087-.28.175-.583.271-.923.012-.046.025-.092.037-.138l.009-.047-.024.1C1351.437-80.433,1351.2-79.651,1350.88-78.789Z" transform="translate(-1308.629 108.787)" fill="#134577"/>
    <path id="Path_279" data-name="Path 279" d="M1303.968-80.168l.021.066-.023-.071Z" transform="translate(-1302.999 108.662)" fill="#134577"/>
    <path id="Path_280" data-name="Path 280" d="M1304.942-77.552c.072.165.147.331.225.5-.253-.593-.516-1.208-.767-1.874C1304.58-78.443,1304.769-77.969,1304.942-77.552Z" transform="translate(-1303.051 108.512)" fill="#134577"/>
    <path id="Path_281" data-name="Path 281" d="M1306.527-87.185c5.6-1.349,11.858-5.66,15.885-10.146-8.306,1.594-16.193,4.975-18.859,8.093a2.166,2.166,0,0,0-.686,1.393C1302.96-87.45,1303.178-86.528,1306.527-87.185Z" transform="translate(-1302.867 110.721)" fill="#134577"/>
    <path id="Path_282" data-name="Path 282" d="M1347.541-72.42l.027-.036.111-.151-.064.084Z" transform="translate(-1308.228 107.754)" fill="#134577"/>
    <path id="Path_283" data-name="Path 283" d="M1336.47-98.34a30.676,30.676,0,0,1-7.019,8.813,31.579,31.579,0,0,1,10.289.033,23.071,23.071,0,0,0,3.8-7.447A21.977,21.977,0,0,0,1336.47-98.34Z" transform="translate(-1306.057 110.842)" fill="#134577"/>
    <path id="Path_284" data-name="Path 284" d="M1348.841-74.542c.3-.477.534-.9.946-1.69-.368.681-.593,1.1-.811,1.47Z" transform="translate(-1308.384 108.189)" fill="#134577"/>
    <path id="Path_285" data-name="Path 285" d="M1350.3-81.5a14.633,14.633,0,0,0,1.769-5.872v.04c-.04.676-.1,1.557-.226,2.507a21.242,21.242,0,0,0,.239-2.725,9.478,9.478,0,0,0-1.32-4.743,16.277,16.277,0,0,1-2.125,6.689A5.949,5.949,0,0,1,1350.3-81.5Z" transform="translate(-1308.359 110.117)" fill="#134577"/>
    <path id="Path_286" data-name="Path 286" d="M1338.5-105.92a17.19,17.19,0,0,1,5.813,2.018,8.21,8.21,0,0,0-2.276-3.533,11.046,11.046,0,0,0-.983-.8l-.3-.2a16.322,16.322,0,0,0-5.068-1.881A6.141,6.141,0,0,1,1338.5-105.92Z" transform="translate(-1306.805 112.278)" fill="#134577"/>
    <path id="Path_287" data-name="Path 287" d="M1308.129-102.992c-.224.283-.446.568-.63.817l-.141.209c.111-.157.228-.318.346-.478C1307.838-102.62,1307.982-102.806,1308.129-102.992Z" transform="translate(-1303.406 111.4)" fill="#134577"/>
    <path id="Path_288" data-name="Path 288" d="M1325.374-110.227a5.037,5.037,0,0,0-.891-.384,37.025,37.025,0,0,0-7.6,1.654.738.738,0,0,0-.1.591c-1.763.895-2.975,1.045-3.4.784a15.536,15.536,0,0,0-4.475,2.876c-1.155,1.483.267,1.444.932,1.36a10.789,10.789,0,0,0,2.8-.9,24.358,24.358,0,0,0-1.477,2.124,48.4,48.4,0,0,1,16.089-4.127A3.616,3.616,0,0,0,1325.374-110.227Z" transform="translate(-1303.539 112.314)" fill="#134577"/>
    <path id="Path_289" data-name="Path 289" d="M1305.734-99.328c-.026.052-.052.1-.08.158.29-.538.487-.9.678-1.221C1306.142-100.079,1305.966-99.764,1305.734-99.328Z" transform="translate(-1303.202 111.088)" fill="#134577"/>
    <path id="Path_290" data-name="Path 290" d="M1348.138-101.59c-.074-.108-.157-.224-.247-.354l-.007-.01c.375.574.646.986.859,1.32C1348.541-100.974,1348.336-101.3,1348.138-101.59Z" transform="translate(-1308.269 111.275)" fill="#134577"/>
    <path id="Path_291" data-name="Path 291" d="M1304.521-96.706c-.123.319-.245.664-.348.952-.038.112-.077.232-.122.367.271-.752.439-1.218.58-1.58C1304.591-96.876,1304.555-96.789,1304.521-96.706Z" transform="translate(-1303.01 110.677)" fill="#134577"/>
    <path id="Path_292" data-name="Path 292" d="M1345.39-104.922l-.156-.158-.151-.15c.5.53.846.9,1.118,1.2C1345.936-104.332,1345.647-104.66,1345.39-104.922Z" transform="translate(-1307.933 111.669)" fill="#134577"/>
    <path id="Path_293" data-name="Path 293" d="M1342.26-107.616c-.076-.055-.156-.112-.242-.172-.063-.044-.128-.089-.2-.135.613.455,1.021.758,1.347,1.014C1342.878-107.14,1342.554-107.4,1342.26-107.616Z" transform="translate(-1307.541 111.992)" fill="#134577"/>
    <path id="Path_294" data-name="Path 294" d="M1347.939-79.626c.324-.862.557-1.645.76-2.33l.025-.1c.109-.419.205-.834.273-1.2.019-.1.037-.2.055-.31.045-.261.085-.52.118-.774.127-.95.185-1.832.226-2.507v-.04a14.636,14.636,0,0,1-1.769,5.872,25.843,25.843,0,0,1-3.826,5.316,38.9,38.9,0,0,1-6.248,5.449,38.025,38.025,0,0,1-3.708,2.309l.038-.043a16.805,16.805,0,0,1-7.513,2.113v.158a2.336,2.336,0,0,0,.68.069c.114,0,.228.007.341.01l-.058,0,.08,0c.173,0,.365,0,.556-.006s.366,0,.532-.01l.085,0h.047c.316-.014.724-.046,1.062-.075l.041,0,.181-.016c.25-.026.527-.062.75-.092l.124-.018.031,0,.007,0c.238-.035.508-.079.8-.133l.1-.019.079-.014c.2-.039.393-.078.568-.118l.23-.053.026-.006.245-.062.507-.129c.206-.056.4-.112.593-.17l.154-.048.156-.049c.134-.042.277-.091.425-.141l.11-.04.055-.018c.209-.074.41-.148.6-.224l.016-.005c.276-.106.382-.149.644-.262l.114-.048c.149-.065.294-.128.432-.192l.087-.04.451-.216a22.923,22.923,0,0,0,7.528-6.135c.112-.141.22-.28.322-.415l.064-.084.167-.227c.176-.253.319-.465.445-.653.134-.206.268-.417.394-.621l.134-.218c.218-.371.444-.789.811-1.471A20.891,20.891,0,0,0,1347.939-79.626Z" transform="translate(-1305.688 109.467)" fill="url(#linear-gradient-15)"/>
    <path id="Path_295" data-name="Path 295" d="M1347.939-79.448c.324-.862.557-1.644.76-2.329l.025-.1c.109-.419.205-.834.273-1.2.019-.1.037-.2.055-.309q.068-.393.118-.775c.127-.95.185-1.831.226-2.507v-.04a14.632,14.632,0,0,1-1.769,5.872,25.849,25.849,0,0,1-3.826,5.317,38.939,38.939,0,0,1-6.248,5.448,38.205,38.205,0,0,1-3.708,2.31l.038-.043a16.817,16.817,0,0,1-7.513,2.113,1.51,1.51,0,0,0,.68.226c.114,0,.228.007.341.009l-.058,0,.08,0c.173,0,.365,0,.556-.005s.366,0,.532-.01l.085,0h.047c.316-.015.724-.046,1.062-.076l.041,0,.181-.016c.25-.026.527-.062.75-.092l.124-.018.031,0h.007c.238-.036.508-.08.8-.133l.1-.02.079-.014c.2-.039.393-.078.568-.118l.23-.053.026-.006.245-.062.507-.129c.206-.056.4-.111.593-.17l.154-.048.156-.048c.134-.043.277-.091.425-.142l.11-.04.055-.018c.209-.073.41-.148.6-.223l.016-.006c.276-.106.382-.148.644-.262l.114-.048c.149-.064.294-.128.432-.191l.087-.041.451-.216a22.923,22.923,0,0,0,7.528-6.135c.112-.141.22-.28.322-.414l.064-.084.167-.227c.176-.253.319-.464.445-.653.134-.205.268-.416.394-.62l.134-.219c.218-.37.444-.789.811-1.471A20.8,20.8,0,0,0,1347.939-79.448Z" transform="translate(-1305.688 109.446)" fill="url(#linear-gradient-16)"/>
    <path id="Path_296" data-name="Path 296" d="M1340.072-82.144a29.6,29.6,0,0,0,4.032-5.535,16.279,16.279,0,0,0,2.125-6.69,11.49,11.49,0,0,0-.792-5.1l-.017-.034c-.243-.5-.578-1.133-.876-1.654-.073-.12-.153-.248-.243-.389-.213-.335-.483-.747-.859-1.32v0c-.234-.321-.414-.565-.581-.781s-.349-.429-.516-.627c-.076-.087-.158-.179-.249-.278-.272-.3-.618-.665-1.119-1.2l-.027-.027c-.283-.273-.5-.482-.708-.666-.238-.207-.482-.411-.705-.6l-.082-.064c-.327-.256-.734-.559-1.347-1.014l-.1-.077-.1-.065c.053.037.109.077.166.12a11.124,11.124,0,0,1,.984.795,8.22,8.22,0,0,1,2.276,3.533,9.849,9.849,0,0,1-.022,5.526,23.071,23.071,0,0,1-3.8,7.447,46.491,46.491,0,0,1-6.434,7.025c-6.109,5.5-13.534,9.709-18.529,10.133a2.562,2.562,0,0,1-1.681-.361l.267.24.053.047c.24.2.5.415.756.626.368.3.738.589,1.068.842l.09.069c.2.139.379.26.539.366.2.127.417.261.644.4.244.148.5.3.754.445.321.172.705.371,1.229.642l.161.084c.083.037.168.075.257.113.235.1.49.209.747.312l.609.244c.122.048.242.093.357.136l.084.032.061.015.141.06c2.67.377,9.173-2.534,15.194-7.133A46.466,46.466,0,0,0,1340.072-82.144Z" transform="translate(-1303.827 112.033)" fill="url(#linear-gradient-17)"/>
    <path id="Path_297" data-name="Path 297" d="M1340.072-81.966A29.6,29.6,0,0,0,1344.1-87.5a16.276,16.276,0,0,0,2.125-6.689,11.494,11.494,0,0,0-.792-5.1l-.017-.033c-.243-.5-.578-1.133-.876-1.655-.073-.12-.153-.247-.243-.389-.213-.334-.483-.746-.859-1.32h0c-.234-.322-.414-.565-.581-.782s-.349-.429-.516-.626c-.076-.088-.158-.18-.249-.278-.272-.3-.618-.666-1.119-1.2l-.027-.028c-.283-.273-.5-.481-.708-.666-.238-.207-.482-.411-.705-.6l-.082-.065c-.327-.256-.734-.559-1.347-1.014l-.1-.077-.1-.065.166.12a10.955,10.955,0,0,1,.984.8,8.209,8.209,0,0,1,2.276,3.533,9.846,9.846,0,0,1-.022,5.525,23.062,23.062,0,0,1-3.8,7.447,46.537,46.537,0,0,1-6.434,7.026c-6.109,5.5-13.534,9.709-18.529,10.132a2.562,2.562,0,0,1-1.681-.361l.267.24.053.048c.24.2.5.415.756.626.368.3.738.589,1.068.842l.09.07c.2.138.379.259.539.366.2.127.417.26.644.4.244.149.5.3.754.445.321.172.705.371,1.229.642l.161.084.257.114c.235.1.49.208.747.312.207.084.413.166.609.244.122.048.242.094.357.137l.084.031.061.016.141.059c2.67.378,9.173-2.534,15.194-7.132A46.473,46.473,0,0,0,1340.072-81.966Z" transform="translate(-1303.827 112.011)" fill="url(#linear-gradient-18)"/>
    <path id="Path_298" data-name="Path 298" d="M1312.281-103.529a10.759,10.759,0,0,1-2.8.9c-.665.085-2.087.123-.933-1.359-.2.236-.422.517-.644.8-.147.187-.291.372-.426.549-.117.159-.234.321-.346.478l-.115.165c-.3.444-.5.753-.706,1.1-.191.325-.386.683-.677,1.221-.047.085-.095.175-.146.27-.127.26-.228.467-.315.654q-.151.329-.3.681c-.024.06-.047.121-.073.186-.141.363-.308.829-.579,1.58-.257,1.183,1.061,1.405,3.916.662,3.482-.916,5.986-2.1,6.255-5.254C1314.47-101.761,1314.41-104.372,1312.281-103.529Z" transform="translate(-1303.026 111.52)" fill="url(#linear-gradient-19)"/>
    <path id="Path_299" data-name="Path 299" d="M1312.1-103.44a10.777,10.777,0,0,1-2.8.9c-.666.084-2.087.123-.933-1.36-.2.236-.422.517-.644.8-.147.186-.292.372-.426.548-.118.16-.235.321-.346.478l-.117.165c-.3.444-.5.754-.7,1.1-.191.325-.387.683-.678,1.221l-.145.27c-.128.26-.228.467-.316.654q-.151.329-.3.681c-.024.06-.048.121-.073.187-.141.363-.309.828-.58,1.58-.256,1.183,1.061,1.4,3.917.661,3.482-.916,5.987-2.1,6.254-5.254C1314.291-101.672,1314.231-104.283,1312.1-103.44Z" transform="translate(-1303.005 111.509)" fill="url(#linear-gradient-20)"/>
    <path id="Path_300" data-name="Path 300" d="M1333.28-100.2a10.846,10.846,0,0,0,1.28-6.144,6.143,6.143,0,0,0-2.814-4.389,12.541,12.541,0,0,0-5.945-1.792l-.073,0h-.009c-.309-.009-.662-.013-1.017-.015-.375,0-.751,0-1.072.008h0l-.074,0-.137.007c-.134.007-.283.016-.435.026-.29.022-.559.052-1.081.116l-.308.035-.15.021-.014,0-.019,0c-.37.055-.544.083-.871.149l-.035.006c-.243.05-.547.111-.78.165l-.014,0-.038.01-.011,0c-.145.034-.251.059-.349.084l-.333.088-.092.026-.124.033c-.169.048-.4.114-.635.187l-.007,0c-.172.054-.346.11-.505.164l-.169.061-.06.02c-.245.088-.452.165-.624.23l-.008,0-.023.009c-.261.1-.372.146-.6.244l-.055.022c-.183.081-.411.18-.585.26h0l-.115.055-.206.1-.08.04a5.355,5.355,0,0,0-2.525,1.961.336.336,0,0,0,.144.432c.427.261,1.638.111,3.4-.784a.739.739,0,0,1,.1-.591c.758-1.284,4.716-2.589,7.6-1.654a4.969,4.969,0,0,1,.891.384,3.613,3.613,0,0,1,1.875,3.979c-.3,2.154-1.871,4.767-4.165,7.323-4.027,4.487-10.288,8.8-15.885,10.147-3.349.656-3.568-.266-3.66-.66.02.478.054.932.1,1.367.007.067.014.133.022.2l0,.039c.01.1.022.2.034.3a23.591,23.591,0,0,0,.579,2.935q.11.4.23.774l.023.071c.115.356.237.7.36,1.024.25.666.513,1.281.766,1.874l.146.3c.514.7,1.614.593,2.779.481-.035-.094-.067-.19-.1-.284.034.091.067.185.1.284,5.83-.969,12.716-6.093,17-9.73.469-.4.919-.8,1.354-1.2A30.68,30.68,0,0,0,1333.28-100.2Z" transform="translate(-1302.867 112.547)" fill="url(#linear-gradient-21)"/>
    <path id="Path_301" data-name="Path 301" d="M1333.28-100.023a10.844,10.844,0,0,0,1.28-6.144,6.141,6.141,0,0,0-2.814-4.389,12.531,12.531,0,0,0-5.945-1.793l-.073,0h-.009c-.309-.009-.662-.014-1.017-.015-.375,0-.751,0-1.072.007h0l-.074,0-.137.007c-.134.007-.283.016-.435.026-.29.022-.559.052-1.081.116l-.308.035-.15.021-.014,0-.019,0c-.37.055-.544.083-.871.15l-.035.006c-.243.05-.547.11-.78.164l-.014,0-.038.009-.011,0-.349.083-.333.088-.092.026-.124.033c-.169.048-.4.114-.635.188l-.007,0c-.172.054-.346.11-.505.165l-.169.06-.06.02c-.245.088-.452.165-.624.23l-.008,0-.023.008c-.261.1-.372.146-.6.244l-.055.023c-.183.081-.411.18-.585.26h0l-.115.054c-.07.033-.139.066-.206.1l-.08.039a5.361,5.361,0,0,0-2.525,1.961.336.336,0,0,0,.144.432c.427.261,1.638.111,3.4-.784a.739.739,0,0,1,.1-.591c.758-1.284,4.716-2.589,7.6-1.654a5.035,5.035,0,0,1,.891.384,3.615,3.615,0,0,1,1.875,3.979c-.3,2.155-1.871,4.767-4.165,7.323-4.027,4.486-10.288,8.8-15.885,10.146-3.349.657-3.568-.266-3.66-.66.02.478.054.932.1,1.367.007.067.014.133.022.2l0,.039c.01.1.022.2.034.3a23.624,23.624,0,0,0,.579,2.935c.074.267.151.524.23.773l.023.071c.115.356.237.7.36,1.025.25.665.513,1.28.766,1.874l.146.3c.514.7,1.614.592,2.779.48-.035-.094-.067-.189-.1-.284.034.092.067.186.1.284,5.83-.969,12.716-6.092,17-9.73.469-.4.919-.8,1.354-1.194A30.672,30.672,0,0,0,1333.28-100.023Z" transform="translate(-1302.867 112.525)" fill="url(#linear-gradient-22)"/>
  </g>
</svg>
